<?xml version="1.0" encoding="utf-8"?>
<!-- Generator: Adobe Illustrator 18.1.0, SVG Export Plug-In . SVG Version: 6.00 Build 0)  -->
<svg version="1.1" baseProfile="basic" id="Layer_1"
	 xmlns="http://www.w3.org/2000/svg" xmlns:xlink="http://www.w3.org/1999/xlink" x="0px" y="0px" viewBox="0 0 128 104"
	 xml:space="preserve">
<g>
	<g>
		<polygon fill="#99CC33" points="64,40 128,72 64,104 0,72 		"/>
		<polygon fill="#99CC33" points="64,40 128,72 64,104 0,72 		"/>
	</g>
	<g>
		<polygon fill="#99CC33" points="64,40 128,72 64,104 0,72 		"/>
		<polygon fill="#99CC33" points="64,40 128,72 64,104 0,72 		"/>
	</g>
	<g>
		<g>
			<polygon fill="#99CC33" points="64,49 48,57 64,65 80,57 			"/>
			<polygon fill="#99CC33" points="64,49 48,57 64,65 80,57 			"/>
		</g>
		<g>
			<ellipse opacity="0.3" cx="64.5" cy="56" rx="7.5" ry="4"/>
			<path fill="#825012" d="M66,29v27c0,0.6-0.7,1-1.5,1S63,56.6,63,56V29H66z"/>
			<circle fill="#539B00" cx="72.5" cy="26.5" r="6.5"/>
			<circle fill="#539B00" cx="67" cy="17" r="9"/>
			<path fill="#825012" d="M64,44.4c-2.6,0-3-0.9-3-3.4v-8h-1v10c0,1.7,1.3,3,3,3h1L64,44.4z"/>
			<path fill="#825012" d="M65,44.8c1.7,0,3-0.4,3-2.1V33h1v10c0,1.7-1.3,3-3,3h-1V44.8z"/>
			<circle fill="#539B00" cx="60.5" cy="33.5" r="7.5"/>
			<circle fill="#539B00" cx="56" cy="30" r="6"/>
			<circle fill="#539B00" cx="57" cy="21" r="8"/>
			<circle fill="#539B00" cx="63" cy="12" r="8"/>
			<path opacity="0.2" fill="#FFFFFF" d="M62.5,18c-2.2,0-4.1,1.3-4.9,3.1C57.2,21,56.9,21,56.5,21c-1.8,0-3.4,0.9-4.4,2.2
				c0.4-1.8,2-3.2,3.9-3.2c0,0,0.1,0,0.1,0c0.5-2.3,2.5-4,4.9-4c2,0,3.7,1.2,4.5,2.9C64.7,18.3,63.6,18,62.5,18z"/>
			<circle fill="#539B00" cx="74" cy="19.4" r="3.6"/>
			<path opacity="0.2" fill="#FFFFFF" d="M73,18.5c0-2.5-1.7-4.6-4-5.3C68.8,10.3,66.4,8,63.5,8c-1.7,0-3.3,0.8-4.3,2.1
				C59.8,7.7,62,6,64.5,6c2.9,0,5.3,2.2,5.5,5.1c2.3,0.5,4,2.5,4,4.9c0,1.1-0.4,2.2-1,3C73,18.8,73,18.7,73,18.5z"/>
			<circle fill="#539B00" cx="67.8" cy="33.8" r="9.3"/>
			<circle fill="#539B00" cx="54.8" cy="26.8" r="3.3"/>
			<path opacity="0.3" d="M50,30c0-0.4,0-0.8,0.1-1.2c0.6,3.8,3.9,6.7,7.9,6.7c0.1,0,0.3,0,0.4,0C57.7,35.8,56.9,36,56,36
				c-0.7,0-1.3-0.1-1.9-0.3c1.4,1.4,3.3,2.3,5.4,2.3c1,0,2-0.2,2.9-0.6C64,39,66.3,40,68.8,40c3.5,0,6.6-2,8.1-4.8
				c-0.7,4.4-4.5,7.8-9.1,7.8c-2.2,0-4.3-0.8-5.9-2.1C61.4,41,61,41,60.5,41c-3.5,0-6.5-2.4-7.3-5.7C51.3,34.3,50,32.3,50,30z"/>
			<path opacity="0.2" fill="#FFFFFF" d="M69.5,28c-0.8,0-1.5,0.1-2.2,0.4C66.4,27,64.8,26,63,26c-1,0-1.9,0.3-2.7,0.8
				c0.7-1.6,2.3-2.8,4.2-2.8c1.6,0,3,0.8,3.8,2c0.2,0,0.5,0,0.7,0c2.9,0,5.4,2.1,5.9,4.9C73.7,29.1,71.7,28,69.5,28z"/>
			<path opacity="0.3" d="M75,29.5c1.9-0.8,3.4-2.4,3.9-4.5c0.1,0.5,0.2,1,0.2,1.5c0,2.4-1.3,4.4-3.2,5.6
				C75.7,31.2,75.4,30.3,75,29.5z"/>
			<path fill="#FFCC00" d="M59.6,25.3c0.1-0.8,0.5-1.3,0.9-1.3c0.4,0,0.8,0.5,0.9,1.3c0.4,0.3,0.6,0.7,0.6,1.2
				c0,0.8-0.7,1.5-1.5,1.5S59,27.3,59,26.5C59,26,59.2,25.6,59.6,25.3z"/>
			<path fill="#FFCC00" d="M68.6,18.3c0.1-0.8,0.5-1.3,0.9-1.3c0.4,0,0.8,0.5,0.9,1.3c0.4,0.3,0.6,0.7,0.6,1.2
				c0,0.8-0.7,1.5-1.5,1.5S68,20.3,68,19.5C68,19,68.2,18.6,68.6,18.3z"/>
			<path fill="#FFCC00" d="M66.6,10.3C66.7,9.5,67.1,9,67.5,9c0.4,0,0.8,0.5,0.9,1.3c0.4,0.3,0.6,0.7,0.6,1.2c0,0.8-0.7,1.5-1.5,1.5
				S66,12.3,66,11.5C66,11,66.2,10.6,66.6,10.3z"/>
			<path fill="#FFCC00" d="M59.6,12.3c0.1-0.8,0.5-1.3,0.9-1.3c0.4,0,0.8,0.5,0.9,1.3c0.4,0.3,0.6,0.7,0.6,1.2
				c0,0.8-0.7,1.5-1.5,1.5S59,14.3,59,13.5C59,13,59.2,12.6,59.6,12.3z"/>
			<path fill="#FFCC00" d="M61.6,18.3c0.1-0.8,0.5-1.3,0.9-1.3c0.4,0,0.8,0.5,0.9,1.3c0.4,0.3,0.6,0.7,0.6,1.2
				c0,0.8-0.7,1.5-1.5,1.5S61,20.3,61,19.5C61,19,61.2,18.6,61.6,18.3z"/>
			<path fill="#FFCC00" d="M53.6,21.3c0.1-0.8,0.5-1.3,0.9-1.3c0.4,0,0.8,0.5,0.9,1.3c0.4,0.3,0.6,0.7,0.6,1.2
				c0,0.8-0.7,1.5-1.5,1.5S53,23.3,53,22.5C53,22,53.2,21.6,53.6,21.3z"/>
			<path fill="#FFCC00" d="M56.6,30.3c0.1-0.8,0.5-1.3,0.9-1.3c0.4,0,0.8,0.5,0.9,1.3c0.4,0.3,0.6,0.7,0.6,1.2
				c0,0.8-0.7,1.5-1.5,1.5S56,32.3,56,31.5C56,31,56.2,30.6,56.6,30.3z"/>
			<path fill="#FFCC00" d="M62.6,34.3c0.1-0.8,0.5-1.3,0.9-1.3c0.4,0,0.8,0.5,0.9,1.3c0.4,0.3,0.6,0.7,0.6,1.2
				c0,0.8-0.7,1.5-1.5,1.5S62,36.3,62,35.5C62,35,62.2,34.6,62.6,34.3z"/>
			<path fill="#FFCC00" d="M65.6,28.3c0.1-0.8,0.5-1.3,0.9-1.3c0.4,0,0.8,0.5,0.9,1.3c0.4,0.3,0.6,0.7,0.6,1.2
				c0,0.8-0.7,1.5-1.5,1.5S65,30.3,65,29.5C65,29,65.2,28.6,65.6,28.3z"/>
			<path fill="#FFCC00" d="M72.6,24.3c0.1-0.8,0.5-1.3,0.9-1.3c0.4,0,0.8,0.5,0.9,1.3c0.4,0.3,0.6,0.7,0.6,1.2
				c0,0.8-0.7,1.5-1.5,1.5S72,26.3,72,25.5C72,25,72.2,24.6,72.6,24.3z"/>
			<path fill="#FFCC00" d="M69.6,32.3c0.1-0.8,0.5-1.3,0.9-1.3c0.4,0,0.8,0.5,0.9,1.3c0.4,0.3,0.6,0.7,0.6,1.2
				c0,0.8-0.7,1.5-1.5,1.5S69,34.3,69,33.5C69,33,69.2,32.6,69.6,32.3z"/>
		</g>
	</g>
	<g>
		<g>
			<ellipse opacity="0.3" cx="95.5" cy="72" rx="7.5" ry="4"/>
			<path fill="#825012" d="M94,45v27c0,0.6,0.7,1,1.5,1s1.5-0.4,1.5-1V45H94z"/>
			<circle fill="#539B00" cx="87.5" cy="42.5" r="6.5"/>
			<circle fill="#539B00" cx="93" cy="33" r="9"/>
			<path fill="#825012" d="M96,60.4c2.6,0,3-0.9,3-3.4v-8h1v10c0,1.7-1.3,3-3,3h-1V60.4z"/>
			<path fill="#825012" d="M95,60.8c-1.7,0-3-0.4-3-2.1V49h-1v10c0,1.7,1.3,3,3,3h1V60.8z"/>
			<circle fill="#539B00" cx="99.5" cy="49.5" r="7.5"/>
			<circle fill="#539B00" cx="104" cy="46" r="6"/>
			<circle fill="#539B00" cx="101" cy="35" r="8"/>
			<circle fill="#539B00" cx="96" cy="26" r="8"/>
			<path opacity="0.2" fill="#FFFFFF" d="M97.5,34c2.2,0,4.1,1.3,4.9,3.1c0.3-0.1,0.7-0.1,1.1-0.1c1.8,0,3.4,0.9,4.4,2.2
				c-0.4-1.8-2-3.2-3.9-3.2c0,0-0.1,0-0.1,0c-0.5-2.3-2.5-4-4.9-4c-2,0-3.7,1.2-4.5,2.9C95.3,34.3,96.4,34,97.5,34z"/>
			<circle fill="#539B00" cx="86" cy="35.4" r="3.6"/>
			<path opacity="0.2" fill="#FFFFFF" d="M87,34.5c0-2.5,1.7-4.6,4-5.3c0.2-2.9,2.5-5.2,5.5-5.2c1.7,0,3.3,0.8,4.3,2.1
				c-0.6-2.4-2.8-4.1-5.3-4.1c-2.9,0-5.3,2.2-5.5,5.1c-2.3,0.5-4,2.5-4,4.9c0,1.1,0.4,2.2,1,3C87,34.8,87,34.7,87,34.5z"/>
			<circle fill="#539B00" cx="92.3" cy="49.8" r="9.3"/>
			<circle fill="#539B00" cx="105.3" cy="42.8" r="3.3"/>
			<path opacity="0.3" d="M110,46c0-0.4,0-0.8-0.1-1.2c-0.6,3.8-3.9,6.7-7.9,6.7c-0.1,0-0.3,0-0.4,0c0.7,0.3,1.6,0.5,2.4,0.5
				c0.7,0,1.3-0.1,1.9-0.3c-1.4,1.4-3.3,2.3-5.4,2.3c-1,0-2-0.2-2.9-0.6C96,55,93.7,56,91.3,56c-3.5,0-6.6-2-8.1-4.8
				c0.7,4.4,4.5,7.8,9.1,7.8c2.2,0,4.3-0.8,5.9-2.1C98.6,57,99,57,99.5,57c3.5,0,6.5-2.4,7.3-5.7C108.7,50.3,110,48.3,110,46z"/>
			<path opacity="0.2" fill="#FFFFFF" d="M90.5,44c0.8,0,1.5,0.1,2.2,0.4C93.6,43,95.2,42,97,42c1,0,1.9,0.3,2.7,0.8
				C99,41.1,97.4,40,95.5,40c-1.6,0-3,0.8-3.8,2c-0.2,0-0.5,0-0.7,0c-2.9,0-5.4,2.1-5.9,4.9C86.3,45.1,88.3,44,90.5,44z"/>
			<path opacity="0.3" d="M85,45.5c-1.9-0.8-3.4-2.4-3.9-4.5c-0.1,0.5-0.2,1-0.2,1.5c0,2.4,1.3,4.4,3.2,5.6
				C84.3,47.2,84.6,46.3,85,45.5z"/>
			<path fill="#FFCC00" d="M100.4,41.3c-0.1-0.8-0.5-1.3-0.9-1.3c-0.4,0-0.8,0.5-0.9,1.3C98.2,41.6,98,42,98,42.5
				c0,0.8,0.7,1.5,1.5,1.5s1.5-0.7,1.5-1.5C101,42,100.8,41.6,100.4,41.3z"/>
			<path fill="#FFCC00" d="M91.4,34.3c-0.1-0.8-0.5-1.3-0.9-1.3c-0.4,0-0.8,0.5-0.9,1.3C89.2,34.6,89,35,89,35.5
				c0,0.8,0.7,1.5,1.5,1.5s1.5-0.7,1.5-1.5C92,35,91.8,34.6,91.4,34.3z"/>
			<path fill="#FFCC00" d="M95.4,24.3c-0.1-0.8-0.5-1.3-0.9-1.3c-0.4,0-0.8,0.5-0.9,1.3C93.2,24.6,93,25,93,25.5
				c0,0.8,0.7,1.5,1.5,1.5s1.5-0.7,1.5-1.5C96,25,95.8,24.6,95.4,24.3z"/>
			<path fill="#FFCC00" d="M101.4,28.3c-0.1-0.8-0.5-1.3-0.9-1.3c-0.4,0-0.8,0.5-0.9,1.3C99.2,28.6,99,29,99,29.5
				c0,0.8,0.7,1.5,1.5,1.5s1.5-0.7,1.5-1.5C102,29,101.8,28.6,101.4,28.3z"/>
			<path fill="#FFCC00" d="M96.4,32.3c-0.1-0.8-0.5-1.3-0.9-1.3c-0.4,0-0.8,0.5-0.9,1.3C94.2,32.6,94,33,94,33.5
				c0,0.8,0.7,1.5,1.5,1.5s1.5-0.7,1.5-1.5C97,33,96.8,32.6,96.4,32.3z"/>
			<path fill="#FFCC00" d="M106.4,37.3c-0.1-0.8-0.5-1.3-0.9-1.3c-0.4,0-0.8,0.5-0.9,1.3c-0.4,0.3-0.6,0.7-0.6,1.2
				c0,0.8,0.7,1.5,1.5,1.5s1.5-0.7,1.5-1.5C107,38,106.8,37.6,106.4,37.3z"/>
			<path fill="#FFCC00" d="M104.4,45.3c-0.1-0.8-0.5-1.3-0.9-1.3c-0.4,0-0.8,0.5-0.9,1.3c-0.4,0.3-0.6,0.7-0.6,1.2
				c0,0.8,0.7,1.5,1.5,1.5s1.5-0.7,1.5-1.5C105,46,104.8,45.6,104.4,45.3z"/>
			<path fill="#FFCC00" d="M97.4,50.3c-0.1-0.8-0.5-1.3-0.9-1.3c-0.4,0-0.8,0.5-0.9,1.3C95.2,50.6,95,51,95,51.5
				c0,0.8,0.7,1.5,1.5,1.5s1.5-0.7,1.5-1.5C98,51,97.8,50.6,97.4,50.3z"/>
			<path fill="#FFCC00" d="M94.4,40.3c-0.1-0.8-0.5-1.3-0.9-1.3c-0.4,0-0.8,0.5-0.9,1.3C92.2,40.6,92,41,92,41.5
				c0,0.8,0.7,1.5,1.5,1.5s1.5-0.7,1.5-1.5C95,41,94.8,40.6,94.4,40.3z"/>
			<path fill="#FFCC00" d="M87.4,40.3c-0.1-0.8-0.5-1.3-0.9-1.3c-0.4,0-0.8,0.5-0.9,1.3C85.2,40.6,85,41,85,41.5
				c0,0.8,0.7,1.5,1.5,1.5s1.5-0.7,1.5-1.5C88,41,87.8,40.6,87.4,40.3z"/>
			<path fill="#FFCC00" d="M90.4,48.3c-0.1-0.8-0.5-1.3-0.9-1.3c-0.4,0-0.8,0.5-0.9,1.3C88.2,48.6,88,49,88,49.5
				c0,0.8,0.7,1.5,1.5,1.5s1.5-0.7,1.5-1.5C91,49,90.8,48.6,90.4,48.3z"/>
		</g>
	</g>
	<g>
		<g>
			<ellipse opacity="0.3" cx="31.5" cy="72" rx="7.5" ry="4"/>
			<path fill="#825012" d="M30,45v27c0,0.6,0.7,1,1.5,1s1.5-0.4,1.5-1V45H30z"/>
			<circle fill="#539B00" cx="23.5" cy="42.5" r="6.5"/>
			<circle fill="#539B00" cx="27" cy="33" r="9"/>
			<path fill="#825012" d="M32,60.4c2.6,0,3-0.9,3-3.4v-8h1v10c0,1.7-1.3,3-3,3h-1L32,60.4z"/>
			<path fill="#825012" d="M31,60.8c-1.7,0-3-0.4-3-2.1V49h-1v10c0,1.7,1.3,3,3,3h1L31,60.8z"/>
			<circle fill="#539B00" cx="35.5" cy="49.5" r="7.5"/>
			<circle fill="#539B00" cx="40" cy="46" r="6"/>
			<circle fill="#539B00" cx="36" cy="35" r="8"/>
			<circle fill="#539B00" cx="29" cy="27" r="8"/>
			<path opacity="0.2" fill="#FFFFFF" d="M30.5,33c2.2,0,4.1,1.3,4.9,3.1c0.3-0.1,0.7-0.1,1.1-0.1c1.8,0,3.4,0.9,4.4,2.2
				c-0.4-1.8-2-3.2-3.9-3.2c0,0-0.1,0-0.1,0c-0.5-2.3-2.5-4-4.9-4c-2,0-3.7,1.2-4.5,2.9C28.3,33.3,29.4,33,30.5,33z"/>
			<circle fill="#539B00" cx="21" cy="35.4" r="3.6"/>
			<path opacity="0.2" fill="#FFFFFF" d="M21,35.5c0-2.5,1.7-4.6,4-5.3c0.2-2.9,2.5-5.2,5.5-5.2c1.7,0,3.3,0.8,4.3,2.1
				C34.2,24.7,32,23,29.5,23c-2.9,0-5.3,2.2-5.5,5.1c-2.3,0.5-4,2.5-4,4.9c0,1.1,0.4,2.2,1,3C21,35.8,21,35.7,21,35.5z"/>
			<circle fill="#539B00" cx="28.3" cy="49.8" r="9.3"/>
			<circle fill="#539B00" cx="41.3" cy="42.8" r="3.3"/>
			<path opacity="0.3" d="M46,46c0-0.4,0-0.8-0.1-1.2c-0.6,3.8-3.9,6.7-7.9,6.7c-0.1,0-0.3,0-0.4,0c0.7,0.3,1.6,0.5,2.4,0.5
				c0.7,0,1.3-0.1,1.9-0.3c-1.4,1.4-3.3,2.3-5.4,2.3c-1,0-2-0.2-2.9-0.6C32,55,29.7,56,27.3,56c-3.5,0-6.6-2-8.1-4.8
				c0.7,4.4,4.5,7.8,9.1,7.8c2.2,0,4.3-0.8,5.9-2.1C34.6,57,35,57,35.5,57c3.5,0,6.5-2.4,7.3-5.7C44.7,50.3,46,48.3,46,46z"/>
			<path opacity="0.2" fill="#FFFFFF" d="M26.5,44c0.8,0,1.5,0.1,2.2,0.4C29.6,43,31.2,42,33,42c1,0,1.9,0.3,2.7,0.8
				C35,41.1,33.4,40,31.5,40c-1.6,0-3,0.8-3.8,2c-0.2,0-0.5,0-0.7,0c-2.9,0-5.4,2.1-5.9,4.9C22.3,45.1,24.3,44,26.5,44z"/>
			<path opacity="0.3" d="M21,45.5c-1.9-0.8-3.4-2.4-3.9-4.5c-0.1,0.5-0.2,1-0.2,1.5c0,2.4,1.3,4.4,3.2,5.6
				C20.3,47.2,20.6,46.3,21,45.5z"/>
			<path fill="#FFCC00" d="M38.4,39.3c-0.1-0.8-0.5-1.3-0.9-1.3c-0.4,0-0.8,0.5-0.9,1.3C36.2,39.6,36,40,36,40.5
				c0,0.8,0.7,1.5,1.5,1.5s1.5-0.7,1.5-1.5C39,40,38.8,39.6,38.4,39.3z"/>
			<path fill="#FFCC00" d="M27.4,34.3c-0.1-0.8-0.5-1.3-0.9-1.3c-0.4,0-0.8,0.5-0.9,1.3C25.2,34.6,25,35,25,35.5
				c0,0.8,0.7,1.5,1.5,1.5s1.5-0.7,1.5-1.5C28,35,27.8,34.6,27.4,34.3z"/>
			<path fill="#FFCC00" d="M27.4,25.3c-0.1-0.8-0.5-1.3-0.9-1.3c-0.4,0-0.8,0.5-0.9,1.3C25.2,25.6,25,26,25,26.5
				c0,0.8,0.7,1.5,1.5,1.5s1.5-0.7,1.5-1.5C28,26,27.8,25.6,27.4,25.3z"/>
			<path fill="#FFCC00" d="M35.4,28.3c-0.1-0.8-0.5-1.3-0.9-1.3c-0.4,0-0.8,0.5-0.9,1.3C33.2,28.6,33,29,33,29.5
				c0,0.8,0.7,1.5,1.5,1.5s1.5-0.7,1.5-1.5C36,29,35.8,28.6,35.4,28.3z"/>
			<path fill="#FFCC00" d="M34.4,34.3c-0.1-0.8-0.5-1.3-0.9-1.3c-0.4,0-0.8,0.5-0.9,1.3C32.2,34.6,32,35,32,35.5
				c0,0.8,0.7,1.5,1.5,1.5s1.5-0.7,1.5-1.5C35,35,34.8,34.6,34.4,34.3z"/>
			<path fill="#FFCC00" d="M39.4,32.3c-0.1-0.8-0.5-1.3-0.9-1.3c-0.4,0-0.8,0.5-0.9,1.3C37.2,32.6,37,33,37,33.5
				c0,0.8,0.7,1.5,1.5,1.5s1.5-0.7,1.5-1.5C40,33,39.8,32.6,39.4,32.3z"/>
			<path fill="#FFCC00" d="M39.4,46.3c-0.1-0.8-0.5-1.3-0.9-1.3c-0.4,0-0.8,0.5-0.9,1.3C37.2,46.6,37,47,37,47.5
				c0,0.8,0.7,1.5,1.5,1.5s1.5-0.7,1.5-1.5C40,47,39.8,46.6,39.4,46.3z"/>
			<path fill="#FFCC00" d="M33.4,50.3c-0.1-0.8-0.5-1.3-0.9-1.3c-0.4,0-0.8,0.5-0.9,1.3C31.2,50.6,31,51,31,51.5
				c0,0.8,0.7,1.5,1.5,1.5s1.5-0.7,1.5-1.5C34,51,33.8,50.6,33.4,50.3z"/>
			<path fill="#FFCC00" d="M30.4,44.3c-0.1-0.8-0.5-1.3-0.9-1.3c-0.4,0-0.8,0.5-0.9,1.3C28.2,44.6,28,45,28,45.5
				c0,0.8,0.7,1.5,1.5,1.5s1.5-0.7,1.5-1.5C31,45,30.8,44.6,30.4,44.3z"/>
			<path fill="#FFCC00" d="M23.4,40.3c-0.1-0.8-0.5-1.3-0.9-1.3c-0.4,0-0.8,0.5-0.9,1.3C21.2,40.6,21,41,21,41.5
				c0,0.8,0.7,1.5,1.5,1.5s1.5-0.7,1.5-1.5C24,41,23.8,40.6,23.4,40.3z"/>
			<path fill="#FFCC00" d="M26.4,48.3c-0.1-0.8-0.5-1.3-0.9-1.3c-0.4,0-0.8,0.5-0.9,1.3C24.2,48.6,24,49,24,49.5
				c0,0.8,0.7,1.5,1.5,1.5s1.5-0.7,1.5-1.5C27,49,26.8,48.6,26.4,48.3z"/>
		</g>
	</g>
	<g>
		<g>
			<ellipse opacity="0.3" cx="63.5" cy="88" rx="7.5" ry="4"/>
			<path fill="#825012" d="M62,61v27c0,0.6,0.7,1,1.5,1s1.5-0.4,1.5-1V61H62z"/>
			<circle fill="#539B00" cx="55.5" cy="58.5" r="6.5"/>
			<circle fill="#539B00" cx="61" cy="49" r="9"/>
			<path fill="#825012" d="M64,76.4c2.6,0,3-0.9,3-3.4v-8h1v10c0,1.7-1.3,3-3,3h-1V76.4z"/>
			<path fill="#825012" d="M63,76.8c-1.7,0-3-0.4-3-2.1V65h-1v10c0,1.7,1.3,3,3,3h1L63,76.8z"/>
			<circle fill="#539B00" cx="67.5" cy="65.5" r="7.5"/>
			<circle fill="#539B00" cx="72" cy="62" r="6"/>
			<circle fill="#539B00" cx="71" cy="53" r="8"/>
			<circle fill="#539B00" cx="65" cy="44" r="8"/>
			<path opacity="0.2" fill="#FFFFFF" d="M65.5,50c2.2,0,4.1,1.3,4.9,3.1c0.3-0.1,0.7-0.1,1.1-0.1c1.8,0,3.4,0.9,4.4,2.2
				c-0.4-1.8-2-3.2-3.9-3.2c0,0-0.1,0-0.1,0c-0.5-2.3-2.5-4-4.9-4c-2,0-3.7,1.2-4.5,2.9C63.3,50.3,64.4,50,65.5,50z"/>
			<circle fill="#539B00" cx="54" cy="51.4" r="3.6"/>
			<path opacity="0.2" fill="#FFFFFF" d="M55,50.5c0-2.5,1.7-4.6,4-5.3c0.2-2.9,2.5-5.2,5.5-5.2c1.7,0,3.3,0.8,4.3,2.1
				C68.2,39.7,66,38,63.5,38c-2.9,0-5.3,2.2-5.5,5.1c-2.3,0.5-4,2.5-4,4.9c0,1.1,0.4,2.2,1,3C55,50.8,55,50.7,55,50.5z"/>
			<circle fill="#539B00" cx="60.3" cy="65.8" r="9.3"/>
			<circle fill="#539B00" cx="73.3" cy="58.8" r="3.3"/>
			<path opacity="0.3" d="M78,62c0-0.4,0-0.8-0.1-1.2c-0.6,3.8-3.9,6.7-7.9,6.7c-0.1,0-0.3,0-0.4,0c0.7,0.3,1.6,0.5,2.4,0.5
				c0.7,0,1.3-0.1,1.9-0.3c-1.4,1.4-3.3,2.3-5.4,2.3c-1,0-2-0.2-2.9-0.6C64,71,61.7,72,59.3,72c-3.5,0-6.6-2-8.1-4.8
				c0.7,4.4,4.5,7.8,9.1,7.8c2.2,0,4.3-0.8,5.9-2.1C66.6,73,67,73,67.5,73c3.5,0,6.5-2.4,7.3-5.7C76.7,66.3,78,64.3,78,62z"/>
			<path opacity="0.2" fill="#FFFFFF" d="M58.5,60c0.8,0,1.5,0.1,2.2,0.4C61.6,59,63.2,58,65,58c1,0,1.9,0.3,2.7,0.8
				C67,57.1,65.4,56,63.5,56c-1.6,0-3,0.8-3.8,2c-0.2,0-0.5,0-0.7,0c-2.9,0-5.4,2.1-5.9,4.9C54.3,61.1,56.3,60,58.5,60z"/>
			<path opacity="0.3" d="M53,61.5c-1.9-0.8-3.4-2.4-3.9-4.5c-0.1,0.5-0.2,1-0.2,1.5c0,2.4,1.3,4.4,3.2,5.6
				C52.3,63.2,52.6,62.3,53,61.5z"/>
			<path fill="#FFCC00" d="M68.4,57.3c-0.1-0.8-0.5-1.3-0.9-1.3c-0.4,0-0.8,0.5-0.9,1.3C66.2,57.6,66,58,66,58.5
				c0,0.8,0.7,1.5,1.5,1.5s1.5-0.7,1.5-1.5C69,58,68.8,57.6,68.4,57.3z"/>
			<path fill="#FFCC00" d="M59.4,50.3c-0.1-0.8-0.5-1.3-0.9-1.3c-0.4,0-0.8,0.5-0.9,1.3C57.2,50.6,57,51,57,51.5
				c0,0.8,0.7,1.5,1.5,1.5s1.5-0.7,1.5-1.5C60,51,59.8,50.6,59.4,50.3z"/>
			<path fill="#FFCC00" d="M61.4,42.3c-0.1-0.8-0.5-1.3-0.9-1.3c-0.4,0-0.8,0.5-0.9,1.3C59.2,42.6,59,43,59,43.5
				c0,0.8,0.7,1.5,1.5,1.5s1.5-0.7,1.5-1.5C62,43,61.8,42.6,61.4,42.3z"/>
			<path fill="#FFCC00" d="M68.4,44.3c-0.1-0.8-0.5-1.3-0.9-1.3c-0.4,0-0.8,0.5-0.9,1.3C66.2,44.6,66,45,66,45.5
				c0,0.8,0.7,1.5,1.5,1.5s1.5-0.7,1.5-1.5C69,45,68.8,44.6,68.4,44.3z"/>
			<path fill="#FFCC00" d="M66.4,50.3c-0.1-0.8-0.5-1.3-0.9-1.3c-0.4,0-0.8,0.5-0.9,1.3C64.2,50.6,64,51,64,51.5
				c0,0.8,0.7,1.5,1.5,1.5s1.5-0.7,1.5-1.5C67,51,66.8,50.6,66.4,50.3z"/>
			<path fill="#FFCC00" d="M74.4,53.3c-0.1-0.8-0.5-1.3-0.9-1.3c-0.4,0-0.8,0.5-0.9,1.3C72.2,53.6,72,54,72,54.5
				c0,0.8,0.7,1.5,1.5,1.5s1.5-0.7,1.5-1.5C75,54,74.8,53.6,74.4,53.3z"/>
			<path fill="#FFCC00" d="M71.4,62.3c-0.1-0.8-0.5-1.3-0.9-1.3c-0.4,0-0.8,0.5-0.9,1.3C69.2,62.6,69,63,69,63.5
				c0,0.8,0.7,1.5,1.5,1.5s1.5-0.7,1.5-1.5C72,63,71.8,62.6,71.4,62.3z"/>
			<path fill="#FFCC00" d="M65.4,66.3c-0.1-0.8-0.5-1.3-0.9-1.3c-0.4,0-0.8,0.5-0.9,1.3C63.2,66.6,63,67,63,67.5
				c0,0.8,0.7,1.5,1.5,1.5s1.5-0.7,1.5-1.5C66,67,65.8,66.6,65.4,66.3z"/>
			<path fill="#FFCC00" d="M62.4,60.3c-0.1-0.8-0.5-1.3-0.9-1.3c-0.4,0-0.8,0.5-0.9,1.3C60.2,60.6,60,61,60,61.5
				c0,0.8,0.7,1.5,1.5,1.5s1.5-0.7,1.5-1.5C63,61,62.8,60.6,62.4,60.3z"/>
			<path fill="#FFCC00" d="M55.4,56.3c-0.1-0.8-0.5-1.3-0.9-1.3c-0.4,0-0.8,0.5-0.9,1.3C53.2,56.6,53,57,53,57.5
				c0,0.8,0.7,1.5,1.5,1.5s1.5-0.7,1.5-1.5C56,57,55.8,56.6,55.4,56.3z"/>
			<path fill="#FFCC00" d="M58.4,64.3c-0.1-0.8-0.5-1.3-0.9-1.3c-0.4,0-0.8,0.5-0.9,1.3C56.2,64.6,56,65,56,65.5
				c0,0.8,0.7,1.5,1.5,1.5s1.5-0.7,1.5-1.5C59,65,58.8,64.6,58.4,64.3z"/>
		</g>
	</g>
</g>
</svg>
