<?xml version="1.0" encoding="utf-8"?>
<!-- Generator: Adobe Illustrator 18.1.0, SVG Export Plug-In . SVG Version: 6.00 Build 0)  -->
<svg version="1.1" baseProfile="basic" id="Layer_1"
	 xmlns="http://www.w3.org/2000/svg" xmlns:xlink="http://www.w3.org/1999/xlink" x="0px" y="0px" viewBox="0 0 80 48"
	 xml:space="preserve">
<polygon opacity="0.2" points="8,16 70,47 72,46 10,15 "/>
<g>
	<polygon fill="#762C07" points="10,2 8,1 6,2 6,15 8,16 10,15 	"/>
	<polygon opacity="0.29" points="8,16 10,15 10,2 8,3 	"/>
	<polygon fill="#762C07" points="26,10 24,9 22,10 22,23 24,24 26,23 	"/>
	<polygon fill="#762C07" points="8,7 22,21 22,19 8,5 	"/>
	<rect x="8" y="12" fill="#762C07" width="14" height="2"/>
	<polygon opacity="0.29" points="24,24 26,23 26,10 24,11 	"/>
	<polygon fill="#762C07" points="42,18 40,17 38,18 38,31 40,32 42,31 	"/>
	<polygon fill="#762C07" points="24,15 38,29 38,27 24,13 	"/>
	<rect x="24" y="20" fill="#762C07" width="14" height="2"/>
	<polygon opacity="0.29" points="40,32 42,31 42,18 40,19 	"/>
	<polygon fill="#762C07" points="58,26 56,25 54,26 54,39 56,40 58,39 	"/>
	<polygon fill="#762C07" points="40,23 54,37 54,35 40,21 	"/>
	<rect x="40" y="28" fill="#762C07" width="14" height="2"/>
	<polygon opacity="0.29" points="56,40 58,39 58,26 56,27 	"/>
	<polygon fill="#762C07" points="74,34 72,33 70,34 70,47 72,48 74,47 	"/>
	<polygon fill="#762C07" points="56,31 70,45 70,43 56,29 	"/>
	<rect x="56" y="36" fill="#762C07" width="14" height="2"/>
	<path opacity="0.11" d="M6,2v13l2,1v-2l7,0l7,7v2v0l2,1v0v-2l7,0l7,7v2v0l2,1v0v-2l7,0l7,7v2v0l2,1v0v-2l7,0l7,7v2l2,1V35l-2-1v2
		l-7,0l-7-7v-2v0l-2-1v0v2l-7,0l-7-7v-2v0l-2-1v0v2l-7,0l-7-7v-2v0l-2-1v0v2l-7,0L8,5V3L6,2z M65,38l5,0v5L65,38z M56,36v-5l5,5
		L56,36z M49,30l5,0v5L49,30z M40,28v-5l5,5L40,28z M33,22l5,0v5L33,22z M24,20v-5l5,5L24,20z M17,14l5,0v5L17,14z M8,7l5,5l-5,0V7z
		"/>
	<polygon opacity="0.29" points="72,48 74,47 74,34 72,35 	"/>
</g>
</svg>
