<?xml version="1.0" encoding="utf-8"?>
<!-- Generator: Adobe Illustrator 18.1.0, SVG Export Plug-In . SVG Version: 6.00 Build 0)  -->
<svg version="1.1" baseProfile="basic" id="Layer_1"
	 xmlns="http://www.w3.org/2000/svg" xmlns:xlink="http://www.w3.org/1999/xlink" x="0px" y="0px" viewBox="0 0 32 64"
	 xml:space="preserve">
<g>
	<g>
		<ellipse opacity="0.3" cx="15.5" cy="56" rx="7.5" ry="4"/>
		<path fill="#825012" d="M14,29v27c0,0.6,0.7,1,1.5,1s1.5-0.4,1.5-1V29H14z"/>
		<circle fill="#539B00" cx="7.5" cy="26.5" r="6.5"/>
		<circle fill="#539B00" cx="13" cy="17" r="9"/>
		<path fill="#825012" d="M16,44.4c2.6,0,3-0.9,3-3.4v-8h1v10c0,1.7-1.3,3-3,3h-1L16,44.4z"/>
		<path fill="#825012" d="M15,44.8c-1.7,0-3-0.4-3-2.1V33h-1v10c0,1.7,1.3,3,3,3h1L15,44.8z"/>
		<circle fill="#539B00" cx="19.5" cy="33.5" r="7.5"/>
		<circle fill="#539B00" cx="24" cy="30" r="6"/>
		<circle fill="#539B00" cx="21" cy="19" r="8"/>
		<circle fill="#539B00" cx="16" cy="10" r="8"/>
		<path opacity="0.2" fill="#FFFFFF" d="M17.5,18c2.2,0,4.1,1.3,4.9,3.1c0.3-0.1,0.7-0.1,1.1-0.1c1.8,0,3.4,0.9,4.4,2.2
			c-0.4-1.8-2-3.2-3.9-3.2c0,0-0.1,0-0.1,0c-0.5-2.3-2.5-4-4.9-4c-2,0-3.7,1.2-4.5,2.9C15.3,18.3,16.4,18,17.5,18z"/>
		<circle fill="#539B00" cx="6" cy="19.4" r="3.6"/>
		<path opacity="0.2" fill="#FFFFFF" d="M7,18.5c0-2.5,1.7-4.6,4-5.3c0.2-2.9,2.5-5.2,5.5-5.2c1.7,0,3.3,0.8,4.3,2.1
			C20.2,7.7,18,6,15.5,6c-2.9,0-5.3,2.2-5.5,5.1c-2.3,0.5-4,2.5-4,4.9c0,1.1,0.4,2.2,1,3C7,18.8,7,18.7,7,18.5z"/>
		<circle fill="#539B00" cx="12.3" cy="33.8" r="9.3"/>
		<circle fill="#539B00" cx="25.3" cy="26.8" r="3.3"/>
		<path opacity="0.3" d="M30,30c0-0.4,0-0.8-0.1-1.2c-0.6,3.8-3.9,6.7-7.9,6.7c-0.1,0-0.3,0-0.4,0c0.7,0.3,1.6,0.5,2.4,0.5
			c0.7,0,1.3-0.1,1.9-0.3c-1.4,1.4-3.3,2.3-5.4,2.3c-1,0-2-0.2-2.9-0.6C16,39,13.7,40,11.3,40c-3.5,0-6.6-2-8.1-4.8
			c0.7,4.4,4.5,7.8,9.1,7.8c2.2,0,4.3-0.8,5.9-2.1C18.6,41,19,41,19.5,41c3.5,0,6.5-2.4,7.3-5.7C28.7,34.3,30,32.3,30,30z"/>
		<path opacity="0.2" fill="#FFFFFF" d="M10.5,28c0.8,0,1.5,0.1,2.2,0.4C13.6,27,15.2,26,17,26c1,0,1.9,0.3,2.7,0.8
			C19,25.1,17.4,24,15.5,24c-1.6,0-3,0.8-3.8,2c-0.2,0-0.5,0-0.7,0c-2.9,0-5.4,2.1-5.9,4.9C6.3,29.1,8.3,28,10.5,28z"/>
		<path opacity="0.3" d="M5,29.5c-1.9-0.8-3.4-2.4-3.9-4.5C1.1,25.5,1,26,1,26.5c0,2.4,1.3,4.4,3.2,5.6C4.3,31.2,4.6,30.3,5,29.5z"
			/>
		<path fill="#FFCC00" d="M20.4,25.3c-0.1-0.8-0.5-1.3-0.9-1.3c-0.4,0-0.8,0.5-0.9,1.3C18.2,25.6,18,26,18,26.5
			c0,0.8,0.7,1.5,1.5,1.5s1.5-0.7,1.5-1.5C21,26,20.8,25.6,20.4,25.3z"/>
		<path fill="#FFCC00" d="M11.4,18.3c-0.1-0.8-0.5-1.3-0.9-1.3c-0.4,0-0.8,0.5-0.9,1.3C9.2,18.6,9,19,9,19.5c0,0.8,0.7,1.5,1.5,1.5
			s1.5-0.7,1.5-1.5C12,19,11.8,18.6,11.4,18.3z"/>
		<path fill="#FFCC00" d="M15.4,8.3C15.3,7.5,14.9,7,14.5,7c-0.4,0-0.8,0.5-0.9,1.3C13.2,8.6,13,9,13,9.5c0,0.8,0.7,1.5,1.5,1.5
			S16,10.3,16,9.5C16,9,15.8,8.6,15.4,8.3z"/>
		<path fill="#FFCC00" d="M21.4,12.3c-0.1-0.8-0.5-1.3-0.9-1.3c-0.4,0-0.8,0.5-0.9,1.3C19.2,12.6,19,13,19,13.5
			c0,0.8,0.7,1.5,1.5,1.5s1.5-0.7,1.5-1.5C22,13,21.8,12.6,21.4,12.3z"/>
		<path fill="#FFCC00" d="M16.4,16.3c-0.1-0.8-0.5-1.3-0.9-1.3c-0.4,0-0.8,0.5-0.9,1.3C14.2,16.6,14,17,14,17.5
			c0,0.8,0.7,1.5,1.5,1.5s1.5-0.7,1.5-1.5C17,17,16.8,16.6,16.4,16.3z"/>
		<path fill="#FFCC00" d="M26.4,21.3c-0.1-0.8-0.5-1.3-0.9-1.3c-0.4,0-0.8,0.5-0.9,1.3C24.2,21.6,24,22,24,22.5
			c0,0.8,0.7,1.5,1.5,1.5s1.5-0.7,1.5-1.5C27,22,26.8,21.6,26.4,21.3z"/>
		<path fill="#FFCC00" d="M24.4,29.3c-0.1-0.8-0.5-1.3-0.9-1.3c-0.4,0-0.8,0.5-0.9,1.3C22.2,29.6,22,30,22,30.5
			c0,0.8,0.7,1.5,1.5,1.5s1.5-0.7,1.5-1.5C25,30,24.8,29.6,24.4,29.3z"/>
		<path fill="#FFCC00" d="M17.4,34.3c-0.1-0.8-0.5-1.3-0.9-1.3c-0.4,0-0.8,0.5-0.9,1.3C15.2,34.6,15,35,15,35.5
			c0,0.8,0.7,1.5,1.5,1.5s1.5-0.7,1.5-1.5C18,35,17.8,34.6,17.4,34.3z"/>
		<path fill="#FFCC00" d="M14.4,24.3c-0.1-0.8-0.5-1.3-0.9-1.3c-0.4,0-0.8,0.5-0.9,1.3C12.2,24.6,12,25,12,25.5
			c0,0.8,0.7,1.5,1.5,1.5s1.5-0.7,1.5-1.5C15,25,14.8,24.6,14.4,24.3z"/>
		<path fill="#FFCC00" d="M7.4,24.3C7.3,23.5,6.9,23,6.5,23c-0.4,0-0.8,0.5-0.9,1.3C5.2,24.6,5,25,5,25.5C5,26.3,5.7,27,6.5,27
			S8,26.3,8,25.5C8,25,7.8,24.6,7.4,24.3z"/>
		<path fill="#FFCC00" d="M10.4,32.3C10.3,31.5,9.9,31,9.5,31c-0.4,0-0.8,0.5-0.9,1.3C8.2,32.6,8,33,8,33.5C8,34.3,8.7,35,9.5,35
			s1.5-0.7,1.5-1.5C11,33,10.8,32.6,10.4,32.3z"/>
	</g>
</g>
</svg>
